<?xml version="1.0" encoding="UTF-8" standalone="no"?>
<!DOCTYPE svg PUBLIC "-//W3C//DTD SVG 1.1//EN" "http://www.w3.org/Graphics/SVG/1.1/DTD/svg11.dtd">
<svg
xmlns="http://www.w3.org/2000/svg" 
width="442" 
height="238">

<path style="fill: #f00; fill-opacity: 0.275956; stroke: #f00; stroke-width: 1; stroke-linecap: butt; stroke-miterlimit: 4;" d="M 337.97911,76.545648 A 51.459461,51.459461 0 0 1 269.30959,53.713213 L 315.18918,30.407862 z" transform="translate(14, 10)"/>
<path style="fill: rgb(255, 243, 0); fill-opacity: 0.27451; stroke: rgb(255, 139, 0); stroke-width: 1; stroke-linecap: butt; stroke-miterlimit: 4;" d="M 79.684426,149.13786 A 73.095818,73.095818 0 0 1 87.714052,182.07838 L 14.619164,182.44717 z" transform="translate(14, 8.96627)"/>
<path style="fill: rgb(255, 243, 0); fill-opacity: 0.27451; stroke: rgb(255, 139, 0); stroke-width: 1; stroke-linecap: butt; stroke-miterlimit: 4;" d="M 344.42752,180.69287 A 46.19656,46.19656 0 0 1 369.73067,139.49108 L 390.62408,180.69287 z" transform="translate(14, 10)"/>

<line x1="29" y1="191" x2="404" y2="191" style="fill: rgb(0, 128, 0); stroke: rgb(0, 128, 0); stroke-width: 2;"/>
<line x1="29" y1="191" x2="329" y2="41" style="fill: rgb(0, 0, 255); stroke: rgb(0, 0, 255); stroke-width: 2;"/>
<line x1="329" y1="41" x2="404" y2="191" style="fill: rgb(255, 102, 0); stroke: rgb(255, 102, 0); stroke-width: 2;"/>

<g style="fill: #f00; stroke: #f00; stroke-width: 2;">
	<line x1="26" y1="188" x2="32" y2="194" />
	<line x1="26" y1="194" x2="32" y2="188" />

	<line x1="401" y1="188" x2="407" y2="194" />
	<line x1="401" y1="194" x2="407" y2="188" />

	<line x1="326" y1="38" x2="332" y2="44" />
	<line x1="326" y1="44" x2="332" y2="38" />
</g>	

<g style="font-size: 16px; line-height: 125%; text-anchor: start; stroke: none; stroke-width: 1px; stroke-linecap: butt; stroke-linejoin: miter; font-family: Arial;">
	<text style="fill:#000;" x="10.2875" y="199.713">A</text>
	<text style="fill:#000;" x="409.263" y="204.975">B</text>
	<text style="fill:#000;" x="325.491" y="31.5848">C</text>
	<switch>
		<text systemLanguage="de"  style="fill: rgb(0, 128, 0);" x="183.582" y="208.236">Hypotenuse c</text>
		<text systemLanguage="nds" style="fill: rgb(0, 128, 0);" x="183.582" y="208.236">Hypotenuse c</text>
		<text systemLanguage="bar" style="fill: rgb(0, 128, 0);" x="183.582" y="208.236">Hypotenuse c</text>
		<text systemLanguage="frr" style="fill: rgb(0, 128, 0);" x="183.582" y="208.236">hüpotenuus c</text>
		<text                      style="fill: rgb(0, 128, 0);" x="183.582" y="208.236">Hypotenuse c</text>
	</switch>
	<switch>
		<text systemLanguage="de"  style="fill: rgb(255, 102, 0);" x="198.32" y="-287.488" transform="matrix(0.431243, 0.902236, -0.902236, 0.431243, 0, 0)">(Gegen)Kathete a</text>
		<text systemLanguage="nds" style="fill: rgb(255, 102, 0);" x="198.32" y="-287.488" transform="matrix(0.431243, 0.902236, -0.902236, 0.431243, 0, 0)">Katheet a</text>
		<text systemLanguage="bar" style="fill: rgb(255, 102, 0);" x="198.32" y="-287.488" transform="matrix(0.431243, 0.902236, -0.902236, 0.431243, 0, 0)">Gegnkathete a</text>
		<text systemLanguage="frr" style="fill: rgb(255, 102, 0);" x="198.32" y="-287.488" transform="matrix(0.431243, 0.902236, -0.902236, 0.431243, 0, 0)">kateet a</text>
		<text                      style="fill: rgb(255, 102, 0);" x="198.32" y="-287.488" transform="matrix(0.431243, 0.902236, -0.902236, 0.431243, 0, 0)">(Gegen)Kathete a</text>
	</switch>
	<switch>
		<text systemLanguage="de"  style="fill:#00f;" x="71.5166" y="176.196" transform="matrix(0.885773, -0.439806, 0.416831, 0.921992, 0, 0)">(An)Kathete b</text>
		<text systemLanguage="nds" style="fill:#00f;" x="71.5166" y="176.196" transform="matrix(0.885773, -0.439806, 0.416831, 0.921992, 0, 0)">Katheet b</text>
		<text systemLanguage="bar" style="fill:#00f;" x="71.5166" y="176.196" transform="matrix(0.885773, -0.439806, 0.416831, 0.921992, 0, 0)">Ankathete b</text>
		<text systemLanguage="frr" style="fill:#00f;" x="71.5166" y="176.196" transform="matrix(0.885773, -0.439806, 0.416831, 0.921992, 0, 0)">kateet b</text>
		<text                      style="fill:#00f;" x="71.5166" y="176.196" transform="matrix(0.885773, -0.439806, 0.416831, 0.921992, 0, 0)">(An)Kathete b</text>
	</switch>
	<text style="fill:#000;" x="71.4939" y="184.201">α = 26,57°</text>
	<text style="fill:#000;" x="307.646" y="178.786">63,43° = β</text>
	<text style="fill:#000;" x="280.103" y="81.2826">γ = 90°</text>
</g>
</svg>

